<mxfile host="app.diagrams.net" modified="2022-11-20T03:00:26.318Z" agent="5.0 (Windows NT 10.0; Win64; x64) AppleWebKit/537.36 (KHTML, like Gecko) Chrome/107.0.0.0 Safari/537.36 Edg/107.0.1418.52" etag="0Mc44vW8n3fIWHKqwwW3" version="20.5.3" type="github">
  <diagram id="zU2JmAnZ_g7IkjmbNp4Z" name="Page-1">
    <mxGraphModel dx="3713" dy="1118" grid="1" gridSize="10" guides="1" tooltips="1" connect="1" arrows="1" fold="1" page="1" pageScale="1" pageWidth="850" pageHeight="1100" math="0" shadow="0">
      <root>
        <mxCell id="0" />
        <mxCell id="1" parent="0" />
        <mxCell id="K8E7JU1qzWLFlxnKoR2Z-7" value="Date &amp;amp; Time Selection" style="edgeStyle=orthogonalEdgeStyle;rounded=0;orthogonalLoop=1;jettySize=auto;html=1;entryX=0.5;entryY=0;entryDx=0;entryDy=0;" edge="1" parent="1" source="K8E7JU1qzWLFlxnKoR2Z-1" target="K8E7JU1qzWLFlxnKoR2Z-6">
          <mxGeometry x="-0.7334" relative="1" as="geometry">
            <mxPoint as="offset" />
          </mxGeometry>
        </mxCell>
        <mxCell id="K8E7JU1qzWLFlxnKoR2Z-1" value="&lt;p style=&quot;margin: 0px; margin-top: 4px; text-align: center; text-decoration: underline;&quot;&gt;&lt;strong&gt;2.0&lt;/strong&gt;&lt;/p&gt;&lt;hr&gt;&lt;p style=&quot;margin: 0px; margin-left: 8px;&quot;&gt;Proceed to Book an Appointment&lt;/p&gt;" style="verticalAlign=middle;align=center;overflow=fill;fontSize=12;fontFamily=Helvetica;html=1;rounded=1;fontStyle=1;strokeWidth=3;fillColor=#E6FFCC" vertex="1" parent="1">
          <mxGeometry x="-1647.5" y="220" width="212.5" height="65" as="geometry" />
        </mxCell>
        <mxCell id="K8E7JU1qzWLFlxnKoR2Z-5" value="Available Time Slots" style="edgeStyle=orthogonalEdgeStyle;rounded=0;orthogonalLoop=1;jettySize=auto;html=1;entryX=1;entryY=0.5;entryDx=0;entryDy=0;" edge="1" parent="1" source="K8E7JU1qzWLFlxnKoR2Z-2" target="K8E7JU1qzWLFlxnKoR2Z-1">
          <mxGeometry relative="1" as="geometry" />
        </mxCell>
        <mxCell id="K8E7JU1qzWLFlxnKoR2Z-2" value="&lt;span style=&quot;white-space: pre;&quot;&gt; &lt;span style=&quot;white-space: pre;&quot;&gt; &lt;/span&gt;&lt;/span&gt;&amp;nbsp;Appointments" style="html=1;dashed=0;whitespace=wrap;shape=mxgraph.dfd.dataStoreID;align=left;spacingLeft=3;points=[[0,0],[0.5,0],[1,0],[0,0.5],[1,0.5],[0,1],[0.5,1],[1,1]];fillColor=#CDA2BE;" vertex="1" parent="1">
          <mxGeometry x="-1275" y="237.5" width="125" height="30" as="geometry" />
        </mxCell>
        <mxCell id="K8E7JU1qzWLFlxnKoR2Z-4" value="Final Quote Preview" style="edgeStyle=orthogonalEdgeStyle;rounded=0;orthogonalLoop=1;jettySize=auto;html=1;entryX=0.5;entryY=0;entryDx=0;entryDy=0;" edge="1" parent="1" source="K8E7JU1qzWLFlxnKoR2Z-3" target="K8E7JU1qzWLFlxnKoR2Z-1">
          <mxGeometry relative="1" as="geometry" />
        </mxCell>
        <mxCell id="K8E7JU1qzWLFlxnKoR2Z-3" value="End-User" style="whiteSpace=wrap;align=center;verticalAlign=middle;fontStyle=1;strokeWidth=3;fillColor=#FFFFCC" vertex="1" parent="1">
          <mxGeometry x="-1586.25" y="80" width="90" height="60" as="geometry" />
        </mxCell>
        <mxCell id="K8E7JU1qzWLFlxnKoR2Z-11" value="Saving New Appointment" style="edgeStyle=orthogonalEdgeStyle;rounded=0;orthogonalLoop=1;jettySize=auto;html=1;entryX=0.5;entryY=1;entryDx=0;entryDy=0;" edge="1" parent="1" source="K8E7JU1qzWLFlxnKoR2Z-6" target="K8E7JU1qzWLFlxnKoR2Z-10">
          <mxGeometry x="0.6279" y="3" relative="1" as="geometry">
            <mxPoint as="offset" />
          </mxGeometry>
        </mxCell>
        <mxCell id="K8E7JU1qzWLFlxnKoR2Z-6" value="&lt;p style=&quot;margin: 0px; margin-top: 4px; text-align: center; text-decoration: underline;&quot;&gt;&lt;strong&gt;2.1&lt;/strong&gt;&lt;/p&gt;&lt;hr&gt;&lt;p style=&quot;margin: 0px; margin-left: 8px;&quot;&gt;Submit Selected Slot&lt;/p&gt;" style="verticalAlign=middle;align=center;overflow=fill;fontSize=12;fontFamily=Helvetica;html=1;rounded=1;fontStyle=1;strokeWidth=3;fillColor=#E6FFCC" vertex="1" parent="1">
          <mxGeometry x="-1515" y="370" width="150" height="65" as="geometry" />
        </mxCell>
        <mxCell id="K8E7JU1qzWLFlxnKoR2Z-13" style="edgeStyle=orthogonalEdgeStyle;rounded=0;orthogonalLoop=1;jettySize=auto;html=1;entryX=0;entryY=0.5;entryDx=0;entryDy=0;" edge="1" parent="1" source="K8E7JU1qzWLFlxnKoR2Z-10" target="K8E7JU1qzWLFlxnKoR2Z-12">
          <mxGeometry relative="1" as="geometry" />
        </mxCell>
        <mxCell id="K8E7JU1qzWLFlxnKoR2Z-10" value="&lt;span style=&quot;white-space: pre;&quot;&gt; &lt;span style=&quot;white-space: pre;&quot;&gt; &lt;/span&gt;&lt;/span&gt;&amp;nbsp;Appointments" style="html=1;dashed=0;whitespace=wrap;shape=mxgraph.dfd.dataStoreID;align=left;spacingLeft=3;points=[[0,0],[0.5,0],[1,0],[0,0.5],[1,0.5],[0,1],[0.5,1],[1,1]];fillColor=#CDA2BE;" vertex="1" parent="1">
          <mxGeometry x="-1275" y="310" width="125" height="30" as="geometry" />
        </mxCell>
        <mxCell id="K8E7JU1qzWLFlxnKoR2Z-21" style="edgeStyle=orthogonalEdgeStyle;rounded=0;orthogonalLoop=1;jettySize=auto;html=1;entryX=0.5;entryY=0;entryDx=0;entryDy=0;exitX=0.5;exitY=1;exitDx=0;exitDy=0;" edge="1" parent="1" source="K8E7JU1qzWLFlxnKoR2Z-12" target="K8E7JU1qzWLFlxnKoR2Z-27">
          <mxGeometry relative="1" as="geometry" />
        </mxCell>
        <mxCell id="K8E7JU1qzWLFlxnKoR2Z-12" value="&lt;p style=&quot;margin: 0px; margin-top: 4px; text-align: center; text-decoration: underline;&quot;&gt;&lt;strong&gt;2.2&lt;/strong&gt;&lt;/p&gt;&lt;hr&gt;&lt;p style=&quot;margin: 0px; margin-left: 8px;&quot;&gt;Display Appointment Details&lt;/p&gt;" style="verticalAlign=middle;align=center;overflow=fill;fontSize=12;fontFamily=Helvetica;html=1;rounded=1;fontStyle=1;strokeWidth=3;fillColor=#E6FFCC" vertex="1" parent="1">
          <mxGeometry x="-1055" y="400" width="190" height="65" as="geometry" />
        </mxCell>
        <mxCell id="K8E7JU1qzWLFlxnKoR2Z-22" style="edgeStyle=orthogonalEdgeStyle;rounded=0;orthogonalLoop=1;jettySize=auto;html=1;entryX=0.5;entryY=1;entryDx=0;entryDy=0;exitX=0;exitY=0.5;exitDx=0;exitDy=0;" edge="1" parent="1" source="K8E7JU1qzWLFlxnKoR2Z-16" target="K8E7JU1qzWLFlxnKoR2Z-20">
          <mxGeometry relative="1" as="geometry" />
        </mxCell>
        <mxCell id="K8E7JU1qzWLFlxnKoR2Z-16" value="&lt;p style=&quot;margin: 0px; margin-top: 4px; text-align: center; text-decoration: underline;&quot;&gt;&lt;strong&gt;2.3&lt;/strong&gt;&lt;/p&gt;&lt;hr&gt;&lt;p style=&quot;margin: 0px; margin-left: 8px;&quot;&gt;Display Required Deposit&amp;nbsp;&lt;/p&gt;" style="verticalAlign=middle;align=center;overflow=fill;fontSize=12;fontFamily=Helvetica;html=1;rounded=1;fontStyle=1;strokeWidth=3;fillColor=#E6FFCC" vertex="1" parent="1">
          <mxGeometry x="-1300" y="640" width="190" height="65" as="geometry" />
        </mxCell>
        <mxCell id="K8E7JU1qzWLFlxnKoR2Z-24" value="Appointment Confirmation by Deposit" style="edgeStyle=orthogonalEdgeStyle;rounded=0;orthogonalLoop=1;jettySize=auto;html=1;entryX=1;entryY=0.5;entryDx=0;entryDy=0;exitX=0;exitY=0.5;exitDx=0;exitDy=0;" edge="1" parent="1" source="K8E7JU1qzWLFlxnKoR2Z-20" target="K8E7JU1qzWLFlxnKoR2Z-23">
          <mxGeometry x="-0.1111" y="-52" relative="1" as="geometry">
            <mxPoint x="-1244" y="567.5" as="sourcePoint" />
            <mxPoint x="-1424" y="567.5" as="targetPoint" />
            <mxPoint as="offset" />
          </mxGeometry>
        </mxCell>
        <mxCell id="K8E7JU1qzWLFlxnKoR2Z-20" value="End-User" style="whiteSpace=wrap;align=center;verticalAlign=middle;fontStyle=1;strokeWidth=3;fillColor=#FFFFCC" vertex="1" parent="1">
          <mxGeometry x="-1375" y="520" width="90" height="60" as="geometry" />
        </mxCell>
        <mxCell id="K8E7JU1qzWLFlxnKoR2Z-35" style="edgeStyle=orthogonalEdgeStyle;rounded=0;orthogonalLoop=1;jettySize=auto;html=1;entryX=0.5;entryY=0;entryDx=0;entryDy=0;" edge="1" parent="1" source="K8E7JU1qzWLFlxnKoR2Z-23" target="K8E7JU1qzWLFlxnKoR2Z-34">
          <mxGeometry relative="1" as="geometry" />
        </mxCell>
        <mxCell id="K8E7JU1qzWLFlxnKoR2Z-23" value="&lt;p style=&quot;margin: 0px; margin-top: 4px; text-align: center; text-decoration: underline;&quot;&gt;&lt;strong&gt;2.4&lt;/strong&gt;&lt;/p&gt;&lt;hr&gt;&lt;p style=&quot;margin: 0px; margin-left: 8px;&quot;&gt;Enter Payment Info&lt;/p&gt;" style="verticalAlign=middle;align=center;overflow=fill;fontSize=12;fontFamily=Helvetica;html=1;rounded=1;fontStyle=1;strokeWidth=3;fillColor=#E6FFCC" vertex="1" parent="1">
          <mxGeometry x="-1666.25" y="517.5" width="170" height="65" as="geometry" />
        </mxCell>
        <mxCell id="K8E7JU1qzWLFlxnKoR2Z-38" style="edgeStyle=orthogonalEdgeStyle;rounded=0;orthogonalLoop=1;jettySize=auto;html=1;entryX=0;entryY=0.5;entryDx=0;entryDy=0;exitX=0;exitY=0.5;exitDx=0;exitDy=0;" edge="1" parent="1" source="K8E7JU1qzWLFlxnKoR2Z-26" target="K8E7JU1qzWLFlxnKoR2Z-3">
          <mxGeometry relative="1" as="geometry">
            <Array as="points">
              <mxPoint x="-1685" y="805" />
              <mxPoint x="-1685" y="110" />
            </Array>
          </mxGeometry>
        </mxCell>
        <mxCell id="K8E7JU1qzWLFlxnKoR2Z-26" value="&lt;p style=&quot;margin: 0px; margin-top: 4px; text-align: center; text-decoration: underline;&quot;&gt;&lt;strong&gt;2.5&lt;/strong&gt;&lt;/p&gt;&lt;hr&gt;&lt;p style=&quot;margin: 0px; margin-left: 8px;&quot;&gt;Send Invoice &amp;amp; Appointment&amp;nbsp;&lt;/p&gt;&lt;p style=&quot;margin: 0px; margin-left: 8px;&quot;&gt;Details via Email&lt;/p&gt;" style="verticalAlign=middle;align=center;overflow=fill;fontSize=12;fontFamily=Helvetica;html=1;rounded=1;fontStyle=1;strokeWidth=3;fillColor=#E6FFCC" vertex="1" parent="1">
          <mxGeometry x="-1577.5" y="770" width="185" height="70" as="geometry" />
        </mxCell>
        <mxCell id="K8E7JU1qzWLFlxnKoR2Z-28" value="User Confirmation (Custom Quote)" style="edgeStyle=orthogonalEdgeStyle;rounded=0;orthogonalLoop=1;jettySize=auto;html=1;entryX=1;entryY=0.5;entryDx=0;entryDy=0;" edge="1" parent="1" source="K8E7JU1qzWLFlxnKoR2Z-27" target="K8E7JU1qzWLFlxnKoR2Z-16">
          <mxGeometry x="-0.0121" y="-7" relative="1" as="geometry">
            <mxPoint as="offset" />
          </mxGeometry>
        </mxCell>
        <mxCell id="K8E7JU1qzWLFlxnKoR2Z-33" value="Immediate Quote" style="edgeStyle=orthogonalEdgeStyle;rounded=0;orthogonalLoop=1;jettySize=auto;html=1;entryX=1;entryY=0.5;entryDx=0;entryDy=0;" edge="1" parent="1" source="K8E7JU1qzWLFlxnKoR2Z-27" target="K8E7JU1qzWLFlxnKoR2Z-26">
          <mxGeometry x="-0.4839" relative="1" as="geometry">
            <Array as="points">
              <mxPoint x="-960" y="815" />
            </Array>
            <mxPoint as="offset" />
          </mxGeometry>
        </mxCell>
        <mxCell id="K8E7JU1qzWLFlxnKoR2Z-27" value="End-User" style="whiteSpace=wrap;align=center;verticalAlign=middle;fontStyle=1;strokeWidth=3;fillColor=#FFFFCC" vertex="1" parent="1">
          <mxGeometry x="-1005" y="540" width="90" height="60" as="geometry" />
        </mxCell>
        <mxCell id="K8E7JU1qzWLFlxnKoR2Z-31" style="edgeStyle=orthogonalEdgeStyle;rounded=0;orthogonalLoop=1;jettySize=auto;html=1;" edge="1" parent="1" source="K8E7JU1qzWLFlxnKoR2Z-30" target="K8E7JU1qzWLFlxnKoR2Z-16">
          <mxGeometry relative="1" as="geometry" />
        </mxCell>
        <mxCell id="K8E7JU1qzWLFlxnKoR2Z-30" value="&lt;span style=&quot;white-space: pre;&quot;&gt;&lt;span style=&quot;white-space: pre;&quot;&gt; &lt;/span&gt; Quote Database&lt;/span&gt;" style="html=1;dashed=0;whitespace=wrap;shape=mxgraph.dfd.dataStoreID;align=left;spacingLeft=3;points=[[0,0],[0.5,0],[1,0],[0,0.5],[1,0.5],[0,1],[0.5,1],[1,1]];fillColor=#CDA2BE;" vertex="1" parent="1">
          <mxGeometry x="-1265" y="465" width="120" height="30" as="geometry" />
        </mxCell>
        <mxCell id="K8E7JU1qzWLFlxnKoR2Z-37" style="edgeStyle=orthogonalEdgeStyle;rounded=0;orthogonalLoop=1;jettySize=auto;html=1;entryX=0.5;entryY=0;entryDx=0;entryDy=0;" edge="1" parent="1" source="K8E7JU1qzWLFlxnKoR2Z-34" target="K8E7JU1qzWLFlxnKoR2Z-26">
          <mxGeometry relative="1" as="geometry" />
        </mxCell>
        <mxCell id="K8E7JU1qzWLFlxnKoR2Z-34" value="&lt;span style=&quot;white-space: pre;&quot;&gt;&amp;nbsp;Stripe&lt;/span&gt;" style="html=1;dashed=0;whitespace=wrap;shape=mxgraph.dfd.dataStoreID;align=left;spacingLeft=3;points=[[0,0],[0.5,0],[1,0],[0,0.5],[1,0.5],[0,1],[0.5,1],[1,1]];fillColor=#CDA2BE;" vertex="1" parent="1">
          <mxGeometry x="-1545" y="650" width="120" height="30" as="geometry" />
        </mxCell>
        <mxCell id="K8E7JU1qzWLFlxnKoR2Z-40" style="edgeStyle=orthogonalEdgeStyle;rounded=0;orthogonalLoop=1;jettySize=auto;html=1;entryX=0.379;entryY=1.006;entryDx=0;entryDy=0;entryPerimeter=0;" edge="1" parent="1" source="K8E7JU1qzWLFlxnKoR2Z-39" target="K8E7JU1qzWLFlxnKoR2Z-26">
          <mxGeometry relative="1" as="geometry">
            <Array as="points">
              <mxPoint x="-1577" y="880" />
              <mxPoint x="-1507" y="880" />
            </Array>
          </mxGeometry>
        </mxCell>
        <mxCell id="K8E7JU1qzWLFlxnKoR2Z-39" value="&lt;span style=&quot;white-space: pre;&quot;&gt; &lt;span style=&quot;white-space: pre;&quot;&gt; &lt;/span&gt;&lt;/span&gt;&amp;nbsp;Appointments" style="html=1;dashed=0;whitespace=wrap;shape=mxgraph.dfd.dataStoreID;align=left;spacingLeft=3;points=[[0,0],[0.5,0],[1,0],[0,0.5],[1,0.5],[0,1],[0.5,1],[1,1]];fillColor=#CDA2BE;" vertex="1" parent="1">
          <mxGeometry x="-1640" y="910" width="125" height="30" as="geometry" />
        </mxCell>
        <mxCell id="K8E7JU1qzWLFlxnKoR2Z-42" style="edgeStyle=orthogonalEdgeStyle;rounded=0;orthogonalLoop=1;jettySize=auto;html=1;entryX=0.641;entryY=1.029;entryDx=0;entryDy=0;entryPerimeter=0;" edge="1" parent="1" source="K8E7JU1qzWLFlxnKoR2Z-41" target="K8E7JU1qzWLFlxnKoR2Z-26">
          <mxGeometry relative="1" as="geometry">
            <Array as="points">
              <mxPoint x="-1380" y="880" />
              <mxPoint x="-1459" y="880" />
            </Array>
          </mxGeometry>
        </mxCell>
        <mxCell id="K8E7JU1qzWLFlxnKoR2Z-41" value="&lt;span style=&quot;white-space: pre;&quot;&gt;&lt;span style=&quot;white-space: pre;&quot;&gt; &lt;/span&gt; Quote Database&lt;/span&gt;" style="html=1;dashed=0;whitespace=wrap;shape=mxgraph.dfd.dataStoreID;align=left;spacingLeft=3;points=[[0,0],[0.5,0],[1,0],[0,0.5],[1,0.5],[0,1],[0.5,1],[1,1]];fillColor=#CDA2BE;" vertex="1" parent="1">
          <mxGeometry x="-1440" y="910" width="120" height="30" as="geometry" />
        </mxCell>
      </root>
    </mxGraphModel>
  </diagram>
</mxfile>
